<mxfile host="app.diagrams.net" modified="2024-06-21T01:46:33.896Z" agent="Mozilla/5.0 (Macintosh; Intel Mac OS X 10_15_7) AppleWebKit/537.36 (KHTML, like Gecko) Chrome/126.0.0.0 Safari/537.36" version="24.5.5" etag="FHmYFLoA1JbkNjSluPZv" type="github">
  <diagram name="Page-1" id="wAzHUyvWFYQVUZW8sRHV">
    <mxGraphModel>
      <root>
        <mxCell id="0" />
        <mxCell id="1" parent="0" />
      </root>
    </mxGraphModel>
  </diagram>
</mxfile>
